# xmcd
#
# Track frame offsets: 
#        150
#        19355
#        31937
#        45477
#        58650
#        70040
#        84837
#        103527
#        118092
#        132055
#        145092
#        159270
#        171442
#        185022
#        198265
#        211125
#        234827
#        248222
#        262565
#
# Disc length: 3646 seconds
#
# Revision: 3
# Processed by: cddbd v1.5.1PL2 Copyright (c) Steve Scherf et al.
# Submitted via: ExactAudioCopy v0.95b2
#
DISCID=f30e3c13
DTITLE=Various Artist - Blues Piano Orgy
DYEAR=1900
DGENRE=
TTITLE0=Speckled Red/Blues Hurt My Tongue To Talk
TTITLE1=Roosevelt Sykes/Dresser Drawers
TTITLE2=Roosevelt Sykes/Concentration Blues
TTITLE3=Roosevelt Sykes/Kickin' Motor Scooter
TTITLE4=Roosevelt Sykes/(New Year's) Resolution Blues
TTITLE5=Sunnyland Slim/My Baby's Coming With A Marriage License
TTITLE6=Sunnyland Slim/Poor Boy
TTITLE7=Sunnyland Slim/Every Time I Get To Drinkin'
TTITLE8=Sunnyland Slim/Depression Blues
TTITLE9=Little Brother Montgomery/Stendahl Stomp
TTITLE10=Little Brother Montgomery/Termblin' Blues
TTITLE11=Little Brother Montgomery/No Special Rider
TTITLE12=Little Brother Montgomery/Bass Key Boogie
TTITLE13=Memphis Slim/Five O'Clock Blues
TTITLE14=Memphis Slim/Nat Dee Special
TTITLE15=Curtis Jones/Lonesome Bedroom Blues
TTITLE16=Curtis Jones/Takin' Off
TTITLE17=Curtis Jones/Tin Pan Alley Blues
TTITLE18=Otis Spann/Three-In-One Blues
EXTD=
EXTT0=
EXTT1=
EXTT2=
EXTT3=
EXTT4=
EXTT5=
EXTT6=
EXTT7=
EXTT8=
EXTT9=
EXTT10=
EXTT11=
EXTT12=
EXTT13=
EXTT14=
EXTT15=
EXTT16=
EXTT17=
EXTT18=
PLAYORDER=
